<svg width="24" height="24" fill="none" xmlns="http://www.w3.org/2000/svg"><path clip-rule="evenodd" d="M11.571 9.151H8.953a.5.5 0 00-.483.374l-1.456 5.574a.5.5 0 00.484.626h1.054a.5.5 0 01.496.442l.635 5.391a.5.5 0 00.496.442h3.642a.5.5 0 00.496-.442l.635-5.391a.5.5 0 01.496-.442h1.054a.5.5 0 00.484-.626L15.53 9.525a.5.5 0 00-.483-.374H11.57z"/><path d="M15.53 9.525l.484-.126-.483.126zm1.456 5.574l.484-.127-.484.127zm-2.034 1.068l-.497-.059.497.059zm-5.904 0l-.496.058.496-.058zM8.953 9.65h2.618v-1H8.953v1zm-1.455 5.574L8.953 9.65l-.967-.252-1.456 5.573.968.253zm1.054 0H7.498v1h1.054v-1zm1.627 6.275l-.634-5.392-.993.117.634 5.392.993-.117zm1.392 0h-1.392v1h1.392v-1zm0 1h.858v-1h-.858v1zm.858 0h1.392v-1h-1.392v1zm2.385-.883l.634-5.392-.993-.117-.634 5.392.993.117zm.634-5.392h1.054v-1H15.45v1zm2.022-1.253L16.014 9.4l-.967.252 1.455 5.574.968-.253zm-2.423-6.32h-2.618v1h2.618v-1zm-2.618 0h-.858v1h.858v-1zm3.585.747a1 1 0 00-.967-.748v1l.967-.252zm.488 6.826a1 1 0 00.968-1.253l-.968.253v1zm-1.053 0v-1a1 1 0 00-.994.883l.993.117zm-6.263 5.392a1 1 0 00.993.883v-1l-.993.117zm-.634-5.392l.993-.117a1 1 0 00-.993-.883v1zM13.82 22.5a1 1 0 00.993-.883l-.993-.117v1zm-7.29-7.528a1 1 0 00.967 1.253v-1l-.968-.253zm2.422-6.32a1 1 0 00-.967.747l.967.252v-1z"/><circle cx="12" cy="4" r="3"/></svg>