<?xml version="1.0" encoding="UTF-8"?><!DOCTYPE svg PUBLIC "-//W3C//DTD SVG 1.1//EN" "http://www.w3.org/Graphics/SVG/1.1/DTD/svg11.dtd"><svg xmlns="http://www.w3.org/2000/svg"><symbol id="alert" viewBox="0 0 24 24"><path stroke="currentColor" stroke-linecap="round" stroke-linejoin="round" stroke-width="2" d="M10.29 3.86L1.82 18a2 2 0 0 0 1.71 3h16.94a2 2 0 0 0 1.71-3L13.71 3.86a2 2 0 0 0-3.42 0zM12 9v4M12 16v.5"/></symbol><symbol id="arrow-btn" viewBox="0 0 8 6"><path stroke="#2E2E2E" stroke-linecap="round" stroke-linejoin="round" stroke-width="2" d="M1 1.5l3 3 3-3"/></symbol><symbol id="arrow" viewBox="0 0 18 18"><path d="M16 9L8.828 1M16 9l-7.172 8M16 9H0"/></symbol><symbol id="btn-arrow" viewBox="0 0 8 6"><path stroke="#2E2E2E" stroke-linecap="round" stroke-linejoin="round" stroke-width="2" d="M1 1.5l3 3 3-3"/></symbol><symbol id="camera (2)" viewBox="0 0 19 18"><path fill="#2E2E2E" d="M9.36 1.939c2.382 0 2.665.008 3.605.05.87.039 1.342.18 1.656.299.417.157.714.345 1.026.648.312.303.505.592.667.996.122.306.267.765.307 1.61.043.914.052 1.188.052 3.502s-.01 2.588-.052 3.502c-.04.845-.185 1.304-.307 1.61a2.678 2.678 0 0 1-.667.996c-.312.303-.61.491-1.026.648-.314.12-.786.26-1.656.299-.94.041-1.223.05-3.604.05-2.382 0-2.664-.009-3.604-.05-.87-.039-1.342-.18-1.657-.299a2.775 2.775 0 0 1-1.025-.648 2.677 2.677 0 0 1-.667-.997c-.122-.305-.268-.764-.307-1.609-.043-.914-.052-1.188-.052-3.502s.009-2.588.052-3.502c.04-.845.185-1.304.307-1.61.161-.404.355-.693.667-.996A2.77 2.77 0 0 1 4.1 2.288c.315-.12.787-.26 1.657-.299.94-.042 1.222-.05 3.604-.05zm0-1.562c-2.422 0-2.725.01-3.677.052-.95.042-1.597.189-2.165.403a4.389 4.389 0 0 0-1.58 1A4.24 4.24 0 0 0 .91 3.367C.69 3.918.538 4.548.495 5.47.452 6.395.441 6.69.441 9.044c0 2.354.01 2.649.054 3.573.043.923.194 1.553.415 2.104a4.24 4.24 0 0 0 1.028 1.535c.496.482.994.779 1.58 1 .568.214 1.216.36 2.165.403.952.042 1.255.052 3.678.052 2.422 0 2.726-.01 3.677-.052.95-.042 1.598-.189 2.165-.403a4.385 4.385 0 0 0 1.58-1 4.24 4.24 0 0 0 1.029-1.535c.22-.551.371-1.181.415-2.104.043-.924.053-1.22.053-3.573 0-2.354-.01-2.65-.053-3.573-.044-.923-.195-1.553-.415-2.104a4.24 4.24 0 0 0-1.029-1.535 4.388 4.388 0 0 0-1.58-1c-.567-.214-1.215-.36-2.165-.403-.951-.042-1.255-.052-3.677-.052z"/><path fill="#2E2E2E" d="M9.36 4.592c-2.529 0-4.58 1.992-4.58 4.45s2.051 4.451 4.58 4.451c2.53 0 4.581-1.993 4.581-4.45 0-2.459-2.05-4.451-4.58-4.451zm0 7.34c-1.641 0-2.972-1.294-2.972-2.89 0-1.595 1.33-2.889 2.973-2.889 1.642 0 2.973 1.294 2.973 2.89 0 1.595-1.331 2.888-2.973 2.888z"/><path fill="#fff" stroke="#2E2E2E" d="M14.703 4.417c0 .285-.242.54-.57.54a.556.556 0 0 1-.571-.54c0-.285.242-.54.57-.54.329 0 .57.255.57.54z"/></symbol><symbol id="camera" viewBox="0 0 19 18"><path fill="#2E2E2E" d="M9.36 1.939c2.382 0 2.665.008 3.605.05.87.039 1.342.18 1.656.299.417.157.714.345 1.026.648.312.303.505.592.667.996.122.306.267.765.307 1.61.043.914.052 1.188.052 3.502s-.01 2.588-.052 3.502c-.04.845-.185 1.304-.307 1.61a2.678 2.678 0 0 1-.667.996c-.312.303-.61.491-1.026.648-.314.12-.786.26-1.656.299-.94.041-1.223.05-3.604.05-2.382 0-2.664-.009-3.604-.05-.87-.039-1.342-.18-1.657-.299a2.775 2.775 0 0 1-1.025-.648 2.677 2.677 0 0 1-.667-.997c-.122-.305-.268-.764-.307-1.609-.043-.914-.052-1.188-.052-3.502s.009-2.588.052-3.502c.04-.845.185-1.304.307-1.61.161-.404.355-.693.667-.996A2.77 2.77 0 0 1 4.1 2.288c.315-.12.787-.26 1.657-.299.94-.042 1.222-.05 3.604-.05zm0-1.562c-2.422 0-2.725.01-3.677.052-.95.042-1.597.189-2.165.403a4.389 4.389 0 0 0-1.58 1A4.24 4.24 0 0 0 .91 3.367C.69 3.918.538 4.548.495 5.47.452 6.395.441 6.69.441 9.044c0 2.354.01 2.649.054 3.573.043.923.194 1.553.415 2.104a4.24 4.24 0 0 0 1.028 1.535c.496.482.994.779 1.58 1 .568.214 1.216.36 2.165.403.952.042 1.255.052 3.678.052 2.422 0 2.726-.01 3.677-.052.95-.042 1.598-.189 2.165-.403a4.385 4.385 0 0 0 1.58-1 4.24 4.24 0 0 0 1.029-1.535c.22-.551.371-1.181.415-2.104.043-.924.053-1.22.053-3.573 0-2.354-.01-2.65-.053-3.573-.044-.923-.195-1.553-.415-2.104a4.24 4.24 0 0 0-1.029-1.535 4.388 4.388 0 0 0-1.58-1c-.567-.214-1.215-.36-2.165-.403-.951-.042-1.255-.052-3.677-.052z"/><path fill="#2E2E2E" d="M9.36 4.592c-2.529 0-4.58 1.992-4.58 4.45s2.051 4.451 4.58 4.451c2.53 0 4.581-1.993 4.581-4.45 0-2.459-2.05-4.451-4.58-4.451zm0 7.34c-1.641 0-2.972-1.294-2.972-2.89 0-1.595 1.33-2.889 2.973-2.889 1.642 0 2.973 1.294 2.973 2.89 0 1.595-1.331 2.888-2.973 2.888z"/><path fill="#fff" stroke="#2E2E2E" d="M14.703 4.417c0 .285-.242.54-.57.54a.556.556 0 0 1-.571-.54c0-.285.242-.54.57-.54.329 0 .57.255.57.54z"/></symbol><symbol id="close" viewBox="0 0 20 20"><path d="M18 2L2 18M2 2l16 16"/></symbol><symbol id="dark-arrow" viewBox="0 0 18 18"><path stroke="#fff" stroke-width="2" d="M16 9L8.828 1M16 9l-7.172 8M16 9H0"/></symbol><symbol id="eye" viewBox="0 0 27 16"><path fill="#2E2E2E" d="M16.413 1.004c.712.101 1.41.28 2.1.492 1.203.37 2.339.886 3.407 1.554a.523.523 0 0 0 .261.075c1.255.005 2.51.003 3.763.004.1 0 .201.01.302.017 0 .024.004.035 0 .04l-.177.27c-.426.652-.79 1.335-1.004 2.09-.023.08-.028.148.027.228 1.117 1.604 1.473 3.365 1.006 5.263-.41 1.664-1.363 2.962-2.813 3.881-1.037.658-2.182.97-3.405.977a5.942 5.942 0 0 1-1.527-.196 6.405 6.405 0 0 1-3.136-1.85c-.114-.122-.22-.248-.342-.385-.457.68-.907 1.35-1.367 2.038-.46-.685-.902-1.349-1.345-2.01-.03.017-.04.018-.045.024-.01.008-.019.018-.027.028-1.045 1.234-2.36 1.99-3.962 2.244a6.19 6.19 0 0 1-2.639-.148A6.292 6.292 0 0 1 2.38 13.7a6.288 6.288 0 0 1-1.527-3.25C.633 9.302.9 8.194.967 7.925c.194-.783.532-1.501.996-2.161a.25.25 0 0 0 .028-.186c-.189-.694-.515-1.324-.896-1.928-.097-.154-.213-.296-.32-.444v-.05c.02.002.042.006.063.006 1.284 0 2.567.001 3.851-.002a.326.326 0 0 0 .166-.053 13.831 13.831 0 0 1 2.872-1.394 15.61 15.61 0 0 1 2.23-.605 17.86 17.86 0 0 1 2.218-.29c1.818-.14 3.27.052 4.238.187zm-1.61 8.478c0 2.82 2.287 5.122 5.096 5.111 2.82-.01 5.096-2.248 5.094-5.098-.002-2.937-2.384-5.145-5.203-5.088-2.783.058-4.961 2.301-4.987 5.075zM7.16 4.388c-2.742-.024-5.132 2.265-5.085 5.18.045 2.718 2.286 5.023 5.142 4.998 2.794-.024 5.039-2.305 5.044-5.067a5.084 5.084 0 0 0-5.1-5.111zm.253-1.33c1.549.095 2.91.634 4.06 1.68 1.146 1.043 1.819 2.345 2.063 3.875.251-1.512.906-2.802 2.031-3.834 1.128-1.034 2.47-1.577 3.994-1.692-1.808-.804-3.714-1.145-5.677-1.183-2.23-.044-4.4.285-6.47 1.154z"/><path fill="#fff" stroke="#2E2E2E" d="M19.88 6.766c-1.408-.025-2.653 1.145-2.654 2.653l2.654-2.653zm0 0h.01m-.01 0h.01m0 0a2.646 2.646 0 0 1 2.657 2.645A2.66 2.66 0 0 1 20 12.076m-.11-5.31l.11 5.31m0 0a2.66 2.66 0 0 1-2.774-2.656L20 12.076zm-.119-.094a2.567 2.567 0 0 0 2.566-2.563 2.558 2.558 0 0 0-2.55-2.561 2.571 2.571 0 0 0-2.576 2.55v.001a2.58 2.58 0 0 0 2.56 2.573zm0 0l.002-.5-.002.5z"/><path fill="#2E2E2E" d="M7.092 6.266a3.144 3.144 0 0 1 3.154 3.149 3.162 3.162 0 0 1-6.321.001c.004-1.802 1.488-3.18 3.167-3.15zm2.055 3.146a2.06 2.06 0 0 0-2.083-2.054c-1.114.002-2.048.942-2.045 2.06a2.083 2.083 0 0 0 2.07 2.065c1.128.003 2.061-.937 2.058-2.07zM19.89 8.373a1.047 1.047 0 0 1 .007 2.092 1.042 1.042 0 0 1-1.055-1.036 1.039 1.039 0 0 1 1.049-1.056z"/><path fill="#2E2E2E" d="M7.087 8.363a1.056 1.056 0 1 1 .003 2.112 1.042 1.042 0 0 1-1.06-1.062c0-.59.461-1.049 1.057-1.05z"/></symbol><symbol id="facebook" viewBox="0 0 12 22"><path fill="#2E2E2E" d="M7.647 21.251v-9.334h3.147l.472-3.637h-3.62V5.958c0-1.053.295-1.771 1.812-1.771l1.935-.001V.932C11.058.888 9.91.79 8.573.79c-2.79 0-4.7 1.695-4.7 4.808V8.28H.717v3.638h3.156v9.333h3.774z"/></symbol><symbol id="Group" viewBox="0 0 27 16"><path fill="#2E2E2E" d="M16.413 1.004c.712.101 1.41.28 2.1.492 1.203.37 2.339.886 3.407 1.554a.523.523 0 0 0 .261.075c1.255.005 2.51.003 3.763.004.1 0 .201.01.302.017 0 .024.004.035 0 .04l-.177.27c-.426.652-.79 1.335-1.004 2.09-.023.08-.028.148.027.228 1.117 1.604 1.473 3.365 1.006 5.263-.41 1.664-1.363 2.962-2.813 3.881-1.037.658-2.182.97-3.405.977a5.942 5.942 0 0 1-1.527-.196 6.405 6.405 0 0 1-3.136-1.85c-.114-.122-.22-.248-.342-.385-.457.68-.907 1.35-1.367 2.038-.46-.685-.902-1.349-1.345-2.01-.03.017-.04.018-.045.024-.01.008-.019.018-.027.028-1.045 1.234-2.36 1.99-3.962 2.244a6.19 6.19 0 0 1-2.639-.148A6.292 6.292 0 0 1 2.38 13.7a6.288 6.288 0 0 1-1.527-3.25C.633 9.302.9 8.194.967 7.925c.194-.783.532-1.501.996-2.161a.25.25 0 0 0 .028-.186c-.189-.694-.515-1.324-.896-1.928-.097-.154-.213-.296-.32-.444v-.05c.02.002.042.006.063.006 1.284 0 2.567.001 3.851-.002a.326.326 0 0 0 .166-.053 13.831 13.831 0 0 1 2.872-1.394 15.61 15.61 0 0 1 2.23-.605 17.86 17.86 0 0 1 2.218-.29c1.818-.14 3.27.052 4.238.187zm-1.61 8.478c0 2.82 2.287 5.122 5.096 5.111 2.82-.01 5.096-2.248 5.094-5.098-.002-2.937-2.384-5.145-5.203-5.088-2.783.058-4.961 2.301-4.987 5.075zM7.16 4.388c-2.742-.024-5.132 2.265-5.085 5.18.045 2.718 2.286 5.023 5.142 4.998 2.794-.024 5.039-2.305 5.044-5.067a5.084 5.084 0 0 0-5.1-5.111zm.253-1.33c1.549.095 2.91.634 4.06 1.68 1.146 1.043 1.819 2.345 2.063 3.875.251-1.512.906-2.802 2.031-3.834 1.128-1.034 2.47-1.577 3.994-1.692-1.808-.804-3.714-1.145-5.677-1.183-2.23-.044-4.4.285-6.47 1.154z"/><path fill="#fff" stroke="#2E2E2E" d="M19.88 6.766c-1.408-.025-2.653 1.145-2.654 2.653l2.654-2.653zm0 0h.01m-.01 0h.01m0 0a2.646 2.646 0 0 1 2.657 2.645A2.66 2.66 0 0 1 20 12.076m-.11-5.31l.11 5.31m0 0a2.66 2.66 0 0 1-2.774-2.656L20 12.076zm-.119-.094a2.567 2.567 0 0 0 2.566-2.563 2.558 2.558 0 0 0-2.55-2.561 2.571 2.571 0 0 0-2.576 2.55v.001a2.58 2.58 0 0 0 2.56 2.573zm0 0l.002-.5-.002.5z"/><path fill="#2E2E2E" d="M7.092 6.266a3.144 3.144 0 0 1 3.154 3.149 3.162 3.162 0 0 1-6.321.001c.004-1.802 1.488-3.18 3.167-3.15zm2.055 3.146a2.06 2.06 0 0 0-2.083-2.054c-1.114.002-2.048.942-2.045 2.06a2.083 2.083 0 0 0 2.07 2.065c1.128.003 2.061-.937 2.058-2.07zM19.89 8.373a1.047 1.047 0 0 1 .007 2.092 1.042 1.042 0 0 1-1.055-1.036 1.039 1.039 0 0 1 1.049-1.056z"/><path fill="#2E2E2E" d="M7.087 8.363a1.056 1.056 0 1 1 .003 2.112 1.042 1.042 0 0 1-1.06-1.062c0-.59.461-1.049 1.057-1.05z"/></symbol><symbol id="guest" viewBox="0 0 24 24"><path d="M11.571 9.151H8.953a.5.5 0 0 0-.483.374l-1.456 5.574a.5.5 0 0 0 .484.626h1.054a.5.5 0 0 1 .496.442l.635 5.391a.5.5 0 0 0 .496.442h3.642a.5.5 0 0 0 .496-.442l.635-5.391a.5.5 0 0 1 .496-.442h1.054a.5.5 0 0 0 .484-.626L15.53 9.525a.5.5 0 0 0-.483-.374H11.57z" clip-rule="evenodd"/><path d="M15.53 9.525l.484-.126-.483.126zm1.456 5.574l.484-.127-.484.127zm-2.034 1.068l-.497-.059.497.059zm-5.904 0l-.496.058.496-.058zM8.953 9.65h2.618v-1H8.953v1zm-1.455 5.574l1.455-5.574-.967-.252-1.456 5.573.968.253zm1.054 0H7.498v1h1.054v-1zm1.627 6.275l-.634-5.392-.993.117.634 5.392.993-.117zm1.392 0h-1.392v1h1.392v-1zm0 1h.858v-1h-.858v1zm.858 0h1.392v-1h-1.392v1zm2.385-.883l.634-5.392-.993-.117-.634 5.392.993.117zm.634-5.392h1.054v-1H15.45v1zm2.022-1.253L16.014 9.4l-.967.252 1.455 5.574.968-.253zm-2.423-6.32h-2.618v1h2.618v-1zm-2.618 0h-.858v1h.858v-1zm3.585.747a1 1 0 0 0-.967-.748v1l.967-.252zm.488 6.826a1 1 0 0 0 .968-1.253l-.968.253v1zm-1.053 0v-1a1 1 0 0 0-.994.883l.993.117zm-6.263 5.392a1 1 0 0 0 .993.883v-1l-.993.117zm-.634-5.392l.993-.117a1 1 0 0 0-.993-.883v1zM13.82 22.5a1 1 0 0 0 .993-.883l-.993-.117v1zm-7.29-7.528a1 1 0 0 0 .967 1.253v-1l-.968-.253zm2.422-6.32a1 1 0 0 0-.967.747l.967.252v-1z"/><circle cx="12" cy="4" r="3"/></symbol><symbol id="ic_book" viewBox="0 0 24 24"><path stroke="#2E2E2E" stroke-width="2" d="M1 13.2l1.964-2M23 13.2l-1.964-2m0 0L12 2l-9.036 9.2m18.072 0V22h-7.072m-11-10.8V22h7.072m3.928 0v-6h-3.928v6m3.928 0h-3.928"/></symbol><symbol id="ic_burger" viewBox="0 0 24 24"><path d="M3 5h18v2H3zM3 11h18v2H3zM3 17h18v2H3z"/></symbol><symbol id="ic_others" viewBox="0 0 24 24"><path stroke="#2E2E2E" stroke-width="2" d="M12.001 5.485a6.006 6.006 0 0 0-4.174-1.48 6.017 6.017 0 0 0-4.054 1.789 6.159 6.159 0 0 0-1.769 4.095 6.17 6.17 0 0 0 1.452 4.22L12 22l8.545-7.891a6.17 6.17 0 0 0 1.45-4.224 6.158 6.158 0 0 0-1.773-4.096 6.016 6.016 0 0 0-4.051-1.783A6.006 6.006 0 0 0 12 5.485zm0 0l-3.18 2.929c-.984.897-1.042 2.49-.126 3.464.82.871 2.131.934 3.021.145l1.57-1.391 5.23 5.537"/></symbol><symbol id="ic_rest" viewBox="0 0 24 24"><path stroke="#2E2E2E" stroke-width="2" d="M7 23V10M10 6.5C10 8.547 8.55 10 7 10S4 8.547 4 6.5C4 4.453 5.45 3 7 3s3 1.453 3 3.5zM18 23V10M18 8V2M21 2c0 .475-.083 5.443-.243 5.877-.16.433-.391.82-.676 1.14-.285.321-.617.568-.973.734A2.618 2.618 0 0 1 18 10c-.377 0-.753-.083-1.108-.249a3.004 3.004 0 0 1-.973-.733 3.573 3.573 0 0 1-.676-1.141C15.083 7.443 15 2.475 15 2"/></symbol><symbol id="ic_search" viewBox="0 0 24 24"><circle cx="11" cy="10" r="8" stroke="#2E2E2E" stroke-width="2"/><path stroke="#2E2E2E" stroke-width="2" d="M16.707 16.293l5.657 5.657"/></symbol><symbol id="ic_shoot" viewBox="0 0 24 24"><circle cx="12" cy="12" r="8" stroke="#2E2E2E" stroke-width="2"/><path stroke="#2E2E2E" stroke-width="2" d="M9 12H1M12 9V1M23 12h-8M12 23v-8"/></symbol><symbol id="ic_spa" viewBox="0 0 24 24"><path stroke="#2E2E2E" stroke-width="2" d="M16 3.5c0 .55-.318 1.151-1.038 1.656C14.245 5.658 13.201 6 12 6c-1.2 0-2.245-.342-2.962-.844C8.318 4.65 8 4.05 8 3.5c0-.55.318-1.151 1.038-1.656C9.755 1.342 10.799 1 12 1c1.2 0 2.245.342 2.962.844C15.682 2.35 16 2.95 16 3.5zM18.402 9.499c.133.726-.223 1.652-1.305 2.574-1.06.904-2.682 1.666-4.619 2.006-1.937.34-3.728.178-5.043-.309-1.342-.496-2.004-1.244-2.137-1.97-.134-.726.223-1.652 1.304-2.574 1.06-.905 2.682-1.666 4.62-2.006 1.937-.34 3.727-.178 5.043.309 1.34.496 2.004 1.243 2.137 1.97zM21.796 19.035c-.03.73-.765 1.686-2.685 2.47-1.83.748-4.403 1.179-7.275 1.064-2.87-.115-5.4-.75-7.161-1.64-1.849-.936-2.5-1.948-2.47-2.677.03-.73.764-1.686 2.684-2.47 1.83-.748 4.404-1.18 7.275-1.065 2.871.115 5.4.75 7.162 1.641 1.848.936 2.5 1.948 2.47 2.677z"/></symbol><symbol id="ic_user" viewBox="0 0 24 24"><circle cx="12" cy="7" r="5"/><path d="M2 23c0-1.857 1.054-3.637 2.929-4.95C6.804 16.737 9.348 16 12 16s5.196.738 7.071 2.05C20.946 19.363 22 21.143 22 23"/></symbol><symbol id="login" viewBox="0 0 22 22"><circle cx="11" cy="6" r="5" stroke="#7F7F7F" stroke-width="2"/><path stroke="#7F7F7F" stroke-width="2" d="M1 22c0-1.857 1.054-3.637 2.929-4.95C5.804 15.737 8.348 15 11 15s5.196.738 7.071 2.05C19.946 18.363 21 20.143 21 22"/></symbol><symbol id="plus-minus" viewBox="0 0 24 24"><path d="M4 11h16v2H4z"/><path d="M13 4v16h-2V4z"/></symbol><symbol id="question" viewBox="0 0 24 24"><path stroke="currentColor" stroke-linecap="round" stroke-linejoin="round" stroke-width="2" d="M12 22c5.523 0 10-4.477 10-10S17.523 2 12 2 2 6.477 2 12s4.477 10 10 10z"/><path stroke="currentColor" stroke-linecap="round" stroke-linejoin="round" stroke-width="2" d="M9.09 9a3 3 0 0 1 5.83 1c0 2-3 3-3 3M12 16v.5"/></symbol><symbol id="rule" viewBox="0 0 24 24"><path d="M21 18H6a1 1 0 0 0 0 2h15v2H6a3 3 0 0 1-3-3V4a2 2 0 0 1 2-2h16v16zM5 16.05c.162-.033.329-.05.5-.05H19V4H5v12.05zM16 9H8V7h8v2z"/></symbol><symbol id="share" viewBox="0 0 20 20"><path stroke="currentColor" stroke-linecap="round" stroke-linejoin="round" stroke-width="2" d="M15 6.667a2.5 2.5 0 1 0 0-5 2.5 2.5 0 0 0 0 5zM5 12.5a2.5 2.5 0 1 0 0-5 2.5 2.5 0 0 0 0 5zM15 18.333a2.5 2.5 0 1 0 0-5 2.5 2.5 0 0 0 0 5zM7.158 11.258l5.692 3.317M12.841 5.425L7.159 8.742"/></symbol></svg>